name Visual3d_SIMM_grf.mot
datacolumns 19
datarows 51
range 1.170000 1.670000
endheader
time	ground_force_vx	ground_force_vy	ground_force_vz	ground_force_px	ground_force_py	ground_force_pz	l_ground_force_vx	l_ground_force_vy	l_ground_force_vz	l_ground_force_px	l_ground_force_py	l_ground_force_pz	ground_torque_x	ground_torque_y	ground_torque_z	l_ground_torque_x	l_ground_torque_y	l_ground_torque_z
1.170000	6.839279	128.153961	-22.013081	0.197325	-0.004056	0.208127	-5.539539	99.059708	30.187223	0.321971	-0.000171	-0.265399	0.000148	0.021758	-0.000388	-0.000340	0.026007	0.000501
1.180000	9.036991	141.466690	-25.937386	0.196206	-0.004114	0.209414	-3.115973	74.365265	22.334085	0.320818	-0.000287	-0.260850	0.000085	0.012552	-0.000224	-0.000933	0.071370	0.001376
1.190000	11.246578	156.342926	-28.867861	0.195262	-0.003823	0.210369	-1.016040	52.714676	15.004642	0.319645	-0.000083	-0.255821	0.000124	0.018188	-0.000324	-0.001178	0.090106	0.001737
1.200000	13.304330	172.635040	-30.579844	0.194592	-0.003317	0.211027	0.598749	35.054333	8.695639	0.318121	0.000306	-0.248655	0.000298	0.043867	-0.000782	-0.001095	0.083727	0.001614
1.210000	15.032717	189.900848	-31.081808	0.194240	-0.002715	0.211472	1.647322	21.654100	3.740228	0.315493	0.000703	-0.236432	0.000637	0.093638	-0.001670	-0.000719	0.055001	0.001060
1.220000	16.279140	207.421799	-30.661070	0.194207	-0.002119	0.211812	0.000000	0.000000	0.000000	0.000000	0.000000	0.000000	0.001145	0.168369	-0.003003	0.000000	0.000000	0.000000
1.230000	16.939880	224.300018	-29.756605	0.194488	-0.001606	0.212141	0.000000	0.000000	0.000000	0.000000	0.000000	0.000000	0.001790	0.263228	-0.004695	0.000000	0.000000	0.000000
1.240000	16.984230	239.529587	-28.764538	0.195068	-0.001228	0.212517	0.000000	0.000000	0.000000	0.000000	0.000000	0.000000	0.002500	0.367749	-0.006560	0.000000	0.000000	0.000000
1.250000	16.470034	252.159225	-27.925798	0.195924	-0.001008	0.212968	0.000000	0.000000	0.000000	0.000000	0.000000	0.000000	0.003168	0.465943	-0.008311	0.000000	0.000000	0.000000
1.260000	15.549787	261.491608	-27.315279	0.197012	-0.000939	0.213497	0.000000	0.000000	0.000000	0.000000	0.000000	0.000000	0.003666	0.539219	-0.009618	0.000000	0.000000	0.000000
1.270000	14.449270	267.220551	-26.917515	0.198277	-0.000991	0.214107	0.000000	0.000000	0.000000	0.000000	0.000000	0.000000	0.003888	0.571871	-0.010201	0.000000	0.000000	0.000000
1.280000	13.404205	269.501221	-26.691137	0.199651	-0.001119	0.214796	0.000000	0.000000	0.000000	0.000000	0.000000	0.000000	0.003778	0.555728	-0.009913	0.000000	0.000000	0.000000
1.290000	12.579619	268.923004	-26.549154	0.201056	-0.001270	0.215550	0.000000	0.000000	0.000000	0.000000	0.000000	0.000000	0.003345	0.491984	-0.008776	0.000000	0.000000	0.000000
1.300000	12.030717	266.355713	-26.355337	0.202418	-0.001395	0.216342	0.000000	0.000000	0.000000	0.000000	0.000000	0.000000	0.002660	0.391235	-0.006979	0.000000	0.000000	0.000000
1.310000	11.713766	262.764618	-25.965199	0.203678	-0.001459	0.217138	0.000000	0.000000	0.000000	0.000000	0.000000	0.000000	0.001838	0.270309	-0.004822	0.000000	0.000000	0.000000
1.320000	11.530723	259.006226	-25.255760	0.204797	-0.001446	0.217901	0.000000	0.000000	0.000000	0.000000	0.000000	0.000000	0.001006	0.147926	-0.002639	0.000000	0.000000	0.000000
1.330000	11.379303	255.672562	-24.162996	0.205763	-0.001364	0.218600	0.000000	0.000000	0.000000	0.000000	0.000000	0.000000	0.000279	0.041060	-0.000732	0.000000	0.000000	0.000000
1.340000	11.183219	252.999100	-22.710152	0.206582	-0.001235	0.219213	0.000000	0.000000	0.000000	0.000000	0.000000	0.000000	-0.000262	-0.038513	0.000687	0.000000	0.000000	0.000000
1.350000	10.906181	250.880875	-20.998703	0.207277	-0.001088	0.219735	0.000000	0.000000	0.000000	0.000000	0.000000	0.000000	-0.000583	-0.085734	0.001529	0.000000	0.000000	0.000000
1.360000	10.558761	249.034729	-19.157503	0.207873	-0.000943	0.220173	0.000000	0.000000	0.000000	0.000000	0.000000	0.000000	-0.000690	-0.101412	0.001809	0.000000	0.000000	0.000000
1.370000	10.184715	247.192108	-17.289921	0.208394	-0.000811	0.220533	0.000000	0.000000	0.000000	0.000000	0.000000	0.000000	-0.000616	-0.090544	0.001615	0.000000	0.000000	0.000000
1.380000	9.837622	245.201538	-15.460704	0.208864	-0.000695	0.220829	0.000000	0.000000	0.000000	0.000000	0.000000	0.000000	-0.000410	-0.060375	0.001077	0.000000	0.000000	0.000000
1.390000	9.555662	243.067780	-13.701949	0.209307	-0.000594	0.221076	0.000000	0.000000	0.000000	0.000000	0.000000	0.000000	-0.000121	-0.017758	0.000317	0.000000	0.000000	0.000000
1.400000	9.347605	240.926224	-12.022652	0.209739	-0.000504	0.221284	0.000000	0.000000	0.000000	0.000000	0.000000	0.000000	0.000223	0.032734	-0.000584	0.000000	0.000000	0.000000
1.410000	9.194071	238.989532	-10.417415	0.210175	-0.000423	0.221461	0.000000	0.000000	0.000000	0.000000	0.000000	0.000000	0.000600	0.088209	-0.001573	0.000000	0.000000	0.000000
1.420000	9.059159	237.476593	-8.868601	0.210620	-0.000347	0.221610	0.000000	0.000000	0.000000	0.000000	0.000000	0.000000	0.000994	0.146232	-0.002608	0.000000	0.000000	0.000000
1.430000	8.904478	236.571075	-7.348739	0.211075	-0.000276	0.221734	0.000000	0.000000	0.000000	0.000000	0.000000	0.000000	0.001396	0.205261	-0.003661	0.000000	0.000000	0.000000
1.440000	8.699941	236.396759	-5.821968	0.211530	-0.000206	0.221838	0.000000	0.000000	0.000000	0.000000	0.000000	0.000000	0.001800	0.264732	-0.004722	0.000000	0.000000	0.000000
1.450000	8.429320	237.004211	-4.256616	0.211967	-0.000136	0.221923	0.000000	0.000000	0.000000	0.000000	0.000000	0.000000	0.002206	0.324462	-0.005788	0.000000	0.000000	0.000000
1.460000	8.090058	238.363678	-2.639802	0.212368	-0.000065	0.221995	0.000000	0.000000	0.000000	0.000000	0.000000	0.000000	0.002609	0.383705	-0.006844	0.000000	0.000000	0.000000
1.470000	7.692302	240.395081	-0.972925	0.212735	0.000006	0.222058	0.000000	0.000000	0.000000	0.000000	0.000000	0.000000	0.003001	0.441363	-0.007873	0.000000	0.000000	0.000000
1.480000	7.260247	242.970047	0.739586	0.213087	0.000073	0.222115	0.000000	0.000000	0.000000	0.000000	0.000000	0.000000	0.003380	0.497124	-0.008867	0.000000	0.000000	0.000000
1.490000	6.828180	245.902267	2.490237	0.213442	0.000132	0.222169	0.000000	0.000000	0.000000	0.000000	0.000000	0.000000	0.003742	0.550352	-0.009817	0.000000	0.000000	0.000000
1.500000	6.431653	248.940353	4.263026	0.213804	0.000183	0.222220	0.000000	0.000000	0.000000	0.000000	0.000000	0.000000	0.004079	0.599945	-0.010702	0.000000	0.000000	0.000000
1.510000	6.101009	251.785370	6.041098	0.214164	0.000224	0.222265	0.000000	0.000000	0.000000	0.000000	0.000000	0.000000	0.004383	0.644609	-0.011498	0.000000	0.000000	0.000000
1.520000	5.856799	254.138397	7.822702	0.214519	0.000252	0.222296	0.000000	0.000000	0.000000	0.000000	0.000000	0.000000	0.004650	0.683905	-0.012199	0.000000	0.000000	0.000000
1.530000	5.704422	255.742401	9.627976	0.214867	0.000263	0.222304	0.000000	0.000000	0.000000	0.000000	0.000000	0.000000	0.004881	0.717953	-0.012807	0.000000	0.000000	0.000000
1.540000	5.629863	256.407501	11.496696	0.215203	0.000257	0.222285	0.000000	0.000000	0.000000	0.000000	0.000000	0.000000	0.005082	0.747459	-0.013333	0.000000	0.000000	0.000000
1.550000	5.594683	256.039276	13.488180	0.215520	0.000235	0.222238	0.000000	0.000000	0.000000	0.000000	0.000000	0.000000	0.005265	0.774314	-0.013812	0.000000	0.000000	0.000000
1.560000	5.541796	254.660049	15.685909	0.215818	0.000205	0.222166	0.000000	0.000000	0.000000	0.000000	0.000000	0.000000	0.005441	0.800309	-0.014276	0.000000	0.000000	0.000000
1.570000	5.400109	252.433640	18.189428	0.216105	0.000175	0.222081	0.000000	0.000000	0.000000	0.000000	0.000000	0.000000	0.005623	0.826985	-0.014751	0.000000	0.000000	0.000000
1.580000	5.096493	249.643311	21.090401	0.216404	0.000158	0.221994	0.000000	0.000000	0.000000	0.000000	0.000000	0.000000	0.005818	0.855721	-0.015264	0.000000	0.000000	0.000000
1.590000	4.566400	246.624268	24.440716	0.216749	0.000166	0.221913	0.000000	0.000000	0.000000	0.000000	0.000000	0.000000	0.006033	0.887313	-0.015827	0.000000	0.000000	0.000000
1.600000	3.771222	243.646317	28.211191	0.217175	0.000207	0.221844	0.000000	0.000000	0.000000	0.000000	0.000000	0.000000	0.006262	0.921059	-0.016429	0.000000	0.000000	0.000000
1.610000	2.710651	240.806000	32.272022	0.217689	0.000279	0.221797	0.000000	0.000000	0.000000	0.000000	0.000000	0.000000	0.006486	0.954006	-0.017017	0.000000	0.000000	0.000000
1.620000	1.427516	238.036057	36.418762	0.218271	0.000372	0.221781	0.000000	0.000000	0.000000	0.000000	0.000000	0.000000	0.006675	0.981676	-0.017511	0.000000	0.000000	0.000000
1.630000	-0.001012	235.199707	40.424229	0.218882	0.000478	0.221801	0.000000	0.000000	0.000000	0.000000	0.000000	0.000000	0.006784	0.997758	-0.017798	0.000000	0.000000	0.000000
1.640000	-1.470465	232.163773	44.085247	0.219474	0.000596	0.221843	0.000000	0.000000	0.000000	0.000000	0.000000	0.000000	0.006765	0.994995	-0.017748	0.000000	0.000000	0.000000
1.650000	-2.858953	228.814987	47.251602	0.220006	0.000741	0.221876	0.000000	0.000000	0.000000	0.000000	0.000000	0.000000	0.006569	0.966202	-0.017235	0.000000	0.000000	0.000000
1.660000	-4.039594	225.033722	49.832558	0.220458	0.000938	0.221855	0.000000	0.000000	0.000000	0.000000	0.000000	0.000000	0.006157	0.905605	-0.016154	0.000000	0.000000	0.000000
1.670000	-4.904243	220.670914	51.795395	0.220857	0.001211	0.221714	0.000000	0.000000	0.000000	0.000000	0.000000	0.000000	0.005510	0.810448	-0.014456	0.000000	0.000000	0.000000
